<svg xmlns="http://www.w3.org/2000/svg" xmlns:xlink="http://www.w3.org/1999/xlink" width="1440" zoomAndPan="magnify" viewBox="200 0 1040 800" height="1158" preserveAspectRatio="xMidYMid meet" version="1.0"><defs><g/><clipPath id="1a0f6ce54a"><path d="M 515.003906 75.003906 L 925.253906 75.003906 L 925.253906 485.253906 L 515.003906 485.253906 Z M 515.003906 75.003906 " clip-rule="nonzero"/></clipPath></defs><rect x="-144" width="1728" fill="#ffffff" y="-80.999999" height="971.999992" fill-opacity="1"/><rect x="-144" width="1728" fill="#ffffff" y="-80.999999" height="971.999992" fill-opacity="1"/><rect x="-144" width="1728" fill="#ffffff" y="-80.999999" height="971.999992" fill-opacity="1"/><path fill="#c6ea94" d="M 598.417969 224.566406 L 638.023438 224.566406 C 640.308594 224.566406 642.175781 226.429688 642.175781 228.71875 L 642.175781 348.03125 C 642.175781 350.320312 640.308594 352.183594 638.023438 352.183594 L 598.417969 352.183594 C 596.128906 352.183594 594.265625 350.320312 594.265625 348.03125 L 594.265625 228.71875 C 594.265625 226.429688 596.128906 224.566406 598.417969 224.566406 Z M 598.417969 224.566406 " fill-opacity="1" fill-rule="evenodd"/><path fill="#c6ea94" d="M 803.386719 224.566406 L 842.988281 224.566406 C 845.277344 224.566406 847.140625 226.429688 847.140625 228.71875 L 847.140625 348.03125 C 847.140625 350.320312 845.277344 352.183594 842.988281 352.183594 L 803.386719 352.183594 C 801.097656 352.183594 799.234375 350.320312 799.234375 348.03125 L 799.234375 228.71875 C 799.234375 226.429688 801.097656 224.566406 803.386719 224.566406 Z M 803.386719 224.566406 " fill-opacity="1" fill-rule="evenodd"/><path fill="#f5b945" d="M 720.703125 80.820312 L 733.160156 112.445312 L 767.089844 114.519531 L 740.855469 136.136719 L 749.371094 169.046875 L 720.703125 150.78125 L 692.039062 169.046875 L 700.550781 136.136719 L 674.320312 114.519531 L 708.25 112.445312 Z M 720.703125 80.820312 " fill-opacity="1" fill-rule="evenodd"/><path fill="#fdcd56" d="M 702.242188 191.347656 L 741.847656 191.347656 C 744.136719 191.347656 746 193.210938 746 195.5 L 746 323.117188 C 746 325.40625 744.136719 327.269531 741.847656 327.269531 L 702.242188 327.269531 C 699.957031 327.269531 698.089844 325.40625 698.089844 323.117188 L 698.089844 195.5 C 698.089844 193.210938 699.957031 191.347656 702.242188 191.347656 Z M 702.242188 191.347656 " fill-opacity="1" fill-rule="evenodd"/><path fill="#66d4f1" d="M 880.359375 319.785156 C 880.359375 407.960938 808.878906 479.441406 720.703125 479.441406 C 632.527344 479.441406 561.046875 407.960938 561.046875 319.785156 Z M 880.359375 319.785156 " fill-opacity="1" fill-rule="evenodd"/><path fill="#f4f6f8" d="M 529.121094 294.441406 L 911.136719 294.441406 C 915.710938 294.441406 919.441406 298.171875 919.441406 302.746094 L 919.441406 372.328125 C 919.441406 376.902344 915.710938 380.632812 911.136719 380.632812 L 529.121094 380.632812 C 524.546875 380.632812 520.816406 376.902344 520.816406 372.328125 L 520.816406 302.746094 C 520.816406 298.171875 524.546875 294.441406 529.121094 294.441406 Z M 529.121094 294.441406 " fill-opacity="1" fill-rule="evenodd"/><path fill="#fdcd56" d="M 833.25 294.441406 C 833.25 323.171875 833.25 351.902344 833.25 380.632812 L 911.136719 380.632812 C 915.710938 380.632812 919.441406 376.902344 919.441406 372.328125 L 919.441406 302.746094 C 919.441406 298.171875 915.710938 294.441406 911.136719 294.441406 Z M 833.25 294.441406 " fill-opacity="1" fill-rule="evenodd"/><g clip-path="url(#1a0f6ce54a)"><path fill="#000000" d="M 862.683594 323.894531 C 865.496094 321.089844 869.207031 319.546875 873.195312 319.546875 C 877.179688 319.546875 880.894531 321.089844 883.707031 323.894531 C 889.492188 329.683594 889.492188 339.109375 883.707031 344.898438 C 880.894531 347.695312 877.179688 349.242188 873.195312 349.242188 C 869.207031 349.242188 865.496094 347.695312 862.683594 344.898438 C 856.898438 339.109375 856.898438 329.683594 862.683594 323.894531 Z M 854.476562 353.121094 C 859.480469 358.121094 866.121094 360.867188 873.195312 360.867188 C 878.273438 360.867188 883.160156 359.441406 887.339844 356.773438 L 896.015625 365.453125 C 897.148438 366.582031 898.671875 367.152344 900.160156 367.152344 C 901.644531 367.152344 903.128906 366.582031 904.261719 365.453125 C 906.527344 363.175781 906.527344 359.5 904.261719 357.230469 L 895.546875 348.542969 C 902.035156 338.3125 900.824219 324.585938 891.914062 315.671875 C 886.910156 310.675781 880.269531 307.914062 873.195312 307.914062 C 866.121094 307.914062 859.480469 310.675781 854.476562 315.671875 C 844.160156 325.996094 844.160156 342.796875 854.476562 353.121094 Z M 913.601562 374.820312 L 913.601562 300.253906 L 839.042969 300.253906 L 839.042969 374.820312 Z M 835.953125 421.792969 C 822.980469 416.058594 808.484375 411.394531 792.890625 407.878906 C 795.3125 401.082031 797.421875 393.921875 799.222656 386.445312 L 859.402344 386.445312 C 853.148438 399.453125 845.214844 411.304688 835.953125 421.792969 Z M 749.28125 470.980469 C 778.980469 465.421875 806.019531 451.332031 827.355469 430.761719 C 815.59375 425.882812 802.582031 421.882812 788.667969 418.835938 C 783.394531 431.316406 777.140625 442.328125 770.070312 451.449219 C 763.621094 459.746094 756.625 466.277344 749.28125 470.980469 Z M 613.992188 430.761719 C 625.792969 425.882812 638.808594 421.882812 652.71875 418.835938 C 657.992188 431.316406 664.246094 442.328125 671.320312 451.449219 C 677.765625 459.746094 684.722656 466.277344 692.109375 470.980469 C 662.410156 465.421875 635.367188 451.332031 613.992188 430.761719 Z M 642.128906 386.445312 L 581.988281 386.445312 C 588.242188 399.453125 596.171875 411.304688 605.433594 421.792969 C 618.410156 416.058594 632.90625 411.394531 648.5 407.875 C 646.074219 401.082031 643.964844 393.921875 642.128906 386.445312 Z M 726.496094 400.21875 L 726.496094 386.445312 L 787.261719 386.445312 C 785.542969 393.105469 783.589844 399.480469 781.402344 405.519531 C 764.011719 402.332031 745.488281 400.523438 726.496094 400.21875 Z M 726.496094 411.851562 C 743.964844 412.140625 760.964844 413.734375 777.023438 416.550781 C 772.375 427.160156 766.941406 436.515625 760.886719 444.3125 C 750.453125 457.769531 738.652344 465.746094 726.496094 467.683594 Z M 714.890625 411.851562 C 697.421875 412.140625 680.425781 413.734375 664.363281 416.550781 C 669.015625 427.160156 674.445312 436.515625 680.503906 444.3125 C 690.9375 457.769531 702.738281 465.746094 714.890625 467.683594 Z M 714.890625 400.21875 C 695.898438 400.523438 677.378906 402.332031 659.988281 405.519531 C 657.800781 399.480469 655.84375 393.105469 654.125 386.445312 L 714.890625 386.445312 Z M 526.613281 300.253906 L 827.4375 300.253906 L 827.4375 374.820312 L 526.613281 374.820312 Z M 600.082031 230.378906 L 636.34375 230.378906 L 636.34375 288.628906 L 600.082031 288.628906 Z M 703.910156 197.160156 L 740.175781 197.160156 L 740.175781 288.628906 L 703.910156 288.628906 Z M 805.042969 230.378906 L 841.308594 230.378906 L 841.308594 288.628906 L 805.042969 288.628906 Z M 919.421875 288.628906 L 852.953125 288.628906 L 852.953125 224.5625 C 852.953125 221.359375 850.332031 218.75 847.128906 218.75 L 799.21875 218.75 C 796.015625 218.75 793.398438 221.359375 793.398438 224.5625 L 793.398438 288.628906 L 751.820312 288.628906 L 751.820312 191.347656 C 751.820312 188.140625 749.199219 185.53125 745.996094 185.53125 L 698.089844 185.53125 C 694.882812 185.53125 692.265625 188.140625 692.265625 191.347656 L 692.265625 288.628906 L 647.992188 288.628906 L 647.992188 224.5625 C 647.992188 221.359375 645.371094 218.75 642.167969 218.75 L 594.257812 218.75 C 591.054688 218.75 588.4375 221.359375 588.4375 224.5625 L 588.4375 288.628906 L 520.792969 288.628906 C 517.589844 288.628906 515.007812 291.234375 515.007812 294.4375 L 515.007812 380.632812 C 515.007812 383.839844 517.589844 386.445312 520.792969 386.445312 L 569.210938 386.445312 C 581.714844 414.824219 601.839844 439.019531 627.589844 456.585938 C 655.101562 475.339844 687.265625 485.253906 720.675781 485.253906 C 754.085938 485.253906 786.285156 475.339844 813.796875 456.585938 C 839.550781 439.019531 859.675781 414.824219 872.179688 386.445312 L 919.425781 386.445312 C 922.628906 386.445312 925.246094 383.839844 925.246094 380.632812 L 925.246094 294.4375 C 925.246094 291.234375 922.628906 288.628906 919.421875 288.628906 Z M 708.601562 118.25 C 710.828125 118.117188 712.820312 116.675781 713.640625 114.578125 L 720.675781 96.679688 L 727.75 114.578125 C 728.570312 116.675781 730.523438 118.113281 732.789062 118.25 L 751.976562 119.417969 L 737.125 131.652344 C 735.40625 133.085938 734.664062 135.402344 735.210938 137.589844 L 740.019531 156.207031 L 723.800781 145.878906 C 721.925781 144.664062 719.464844 144.664062 717.585938 145.878906 L 701.371094 156.207031 L 706.175781 137.589844 C 706.722656 135.402344 705.980469 133.085938 704.222656 131.652344 L 689.414062 119.417969 Z M 670.617188 119.003906 L 693.984375 138.273438 L 686.402344 167.59375 C 685.777344 169.902344 686.675781 172.34375 688.628906 173.746094 C 689.605469 174.488281 690.820312 174.859375 692.03125 174.859375 C 693.125 174.859375 694.179688 174.550781 695.15625 173.945312 L 720.675781 157.671875 L 746.230469 173.945312 C 748.261719 175.234375 750.839844 175.148438 752.757812 173.746094 C 754.710938 172.34375 755.609375 169.902344 754.984375 167.59375 L 747.402344 138.273438 L 770.769531 119.003906 C 772.609375 117.484375 773.351562 114.992188 772.609375 112.722656 C 771.867188 110.449219 769.832031 108.867188 767.449219 108.714844 L 737.203125 106.871094 L 726.105469 78.695312 C 725.246094 76.46875 723.097656 75.003906 720.675781 75.003906 C 718.292969 75.003906 716.140625 76.46875 715.28125 78.695312 L 704.183594 106.871094 L 673.9375 108.714844 C 671.554688 108.867188 669.519531 110.449219 668.777344 112.722656 C 668.035156 114.992188 668.777344 117.484375 670.617188 119.003906 Z M 670.617188 119.003906 " fill-opacity="1" fill-rule="evenodd"/></g><g fill="#000000" fill-opacity="1"><g transform="translate(425.113246, 663.949547)"><g><path d="M 24.421875 0 L 21 0 L 18.5 -7.4375 L 6.9375 -7.4375 L 4.421875 0 L 1.078125 0 L 10.546875 -27.125 L 14.953125 -27.125 Z M 12.484375 -23.84375 L 7.828125 -10.109375 L 17.59375 -10.109375 L 12.953125 -23.84375 Z M 12.484375 -23.84375 "/></g></g></g><g fill="#000000" fill-opacity="1"><g transform="translate(450.602144, 663.949547)"><g><path d="M 3.5625 0 L 3.5625 -20.46875 L 6.4375 -20.46875 L 6.4375 -17.25 L 6.828125 -17.15625 C 7.503906 -18.363281 8.367188 -19.28125 9.421875 -19.90625 C 10.484375 -20.539062 11.773438 -20.859375 13.296875 -20.859375 C 15.765625 -20.859375 17.550781 -20.226562 18.65625 -18.96875 C 19.757812 -17.71875 20.3125 -15.785156 20.3125 -13.171875 L 20.3125 0 L 17.296875 0 L 17.296875 -13.09375 C 17.296875 -14.332031 17.132812 -15.328125 16.8125 -16.078125 C 16.5 -16.828125 16.007812 -17.367188 15.34375 -17.703125 C 14.6875 -18.046875 13.820312 -18.21875 12.75 -18.21875 C 10.90625 -18.21875 9.414062 -17.609375 8.28125 -16.390625 C 7.15625 -15.171875 6.59375 -13.207031 6.59375 -10.5 L 6.59375 0 Z M 3.5625 0 "/></g></g></g><g fill="#000000" fill-opacity="1"><g transform="translate(474.161751, 663.949547)"><g/></g></g><g fill="#000000" fill-opacity="1"><g transform="translate(483.474289, 663.949547)"><g><path d="M 24.421875 0 L 21 0 L 18.5 -7.4375 L 6.9375 -7.4375 L 4.421875 0 L 1.078125 0 L 10.546875 -27.125 L 14.953125 -27.125 Z M 12.484375 -23.84375 L 7.828125 -10.109375 L 17.59375 -10.109375 L 12.953125 -23.84375 Z M 12.484375 -23.84375 "/></g></g></g><g fill="#000000" fill-opacity="1"><g transform="translate(508.963187, 663.949547)"><g><path d="M 3.5625 8.296875 L 3.5625 -20.46875 L 6.59375 -20.46875 L 6.59375 -17.40625 L 6.984375 -17.328125 C 8.503906 -19.679688 10.734375 -20.859375 13.671875 -20.859375 C 15.378906 -20.859375 16.867188 -20.46875 18.140625 -19.6875 C 19.421875 -18.90625 20.410156 -17.71875 21.109375 -16.125 C 21.816406 -14.539062 22.171875 -12.570312 22.171875 -10.21875 C 22.171875 -7.882812 21.800781 -5.925781 21.0625 -4.34375 C 20.320312 -2.757812 19.296875 -1.570312 17.984375 -0.78125 C 16.671875 0 15.160156 0.390625 13.453125 0.390625 C 12.066406 0.390625 10.832031 0.148438 9.75 -0.328125 C 8.675781 -0.816406 7.753906 -1.609375 6.984375 -2.703125 L 6.59375 -2.640625 L 6.59375 8.296875 Z M 12.78125 -2.3125 C 16.925781 -2.3125 19 -4.945312 19 -10.21875 C 19 -15.5 16.925781 -18.140625 12.78125 -18.140625 C 11.570312 -18.140625 10.503906 -17.863281 9.578125 -17.3125 C 8.648438 -16.757812 7.921875 -15.890625 7.390625 -14.703125 C 6.859375 -13.523438 6.59375 -12.03125 6.59375 -10.21875 C 6.59375 -8.425781 6.859375 -6.9375 7.390625 -5.75 C 7.921875 -4.570312 8.648438 -3.703125 9.578125 -3.140625 C 10.503906 -2.585938 11.570312 -2.3125 12.78125 -2.3125 Z M 12.78125 -2.3125 "/></g></g></g><g fill="#000000" fill-opacity="1"><g transform="translate(533.376134, 663.949547)"><g><path d="M 3.5625 8.296875 L 3.5625 -20.46875 L 6.59375 -20.46875 L 6.59375 -17.40625 L 6.984375 -17.328125 C 8.503906 -19.679688 10.734375 -20.859375 13.671875 -20.859375 C 15.378906 -20.859375 16.867188 -20.46875 18.140625 -19.6875 C 19.421875 -18.90625 20.410156 -17.71875 21.109375 -16.125 C 21.816406 -14.539062 22.171875 -12.570312 22.171875 -10.21875 C 22.171875 -7.882812 21.800781 -5.925781 21.0625 -4.34375 C 20.320312 -2.757812 19.296875 -1.570312 17.984375 -0.78125 C 16.671875 0 15.160156 0.390625 13.453125 0.390625 C 12.066406 0.390625 10.832031 0.148438 9.75 -0.328125 C 8.675781 -0.816406 7.753906 -1.609375 6.984375 -2.703125 L 6.59375 -2.640625 L 6.59375 8.296875 Z M 12.78125 -2.3125 C 16.925781 -2.3125 19 -4.945312 19 -10.21875 C 19 -15.5 16.925781 -18.140625 12.78125 -18.140625 C 11.570312 -18.140625 10.503906 -17.863281 9.578125 -17.3125 C 8.648438 -16.757812 7.921875 -15.890625 7.390625 -14.703125 C 6.859375 -13.523438 6.59375 -12.03125 6.59375 -10.21875 C 6.59375 -8.425781 6.859375 -6.9375 7.390625 -5.75 C 7.921875 -4.570312 8.648438 -3.703125 9.578125 -3.140625 C 10.503906 -2.585938 11.570312 -2.3125 12.78125 -2.3125 Z M 12.78125 -2.3125 "/></g></g></g><g fill="#000000" fill-opacity="1"><g transform="translate(557.789082, 663.949547)"><g><path d="M 8.140625 0.390625 C 6.691406 0.390625 5.550781 -0.0195312 4.71875 -0.84375 C 3.894531 -1.664062 3.484375 -2.894531 3.484375 -4.53125 L 3.484375 -28.6875 L 6.515625 -28.6875 L 6.515625 -4.734375 C 6.515625 -3.878906 6.675781 -3.257812 7 -2.875 C 7.332031 -2.5 7.84375 -2.3125 8.53125 -2.3125 C 8.957031 -2.3125 9.382812 -2.382812 9.8125 -2.53125 L 10.078125 -2.453125 L 10.421875 -0.078125 C 10.203125 0.078125 9.882812 0.191406 9.46875 0.265625 C 9.050781 0.347656 8.609375 0.390625 8.140625 0.390625 Z M 8.140625 0.390625 "/></g></g></g><g fill="#000000" fill-opacity="1"><g transform="translate(568.919605, 663.949547)"><g><path d="M 5.078125 -24.421875 C 4.441406 -24.421875 3.921875 -24.617188 3.515625 -25.015625 C 3.109375 -25.421875 2.90625 -25.929688 2.90625 -26.546875 C 2.90625 -27.171875 3.109375 -27.679688 3.515625 -28.078125 C 3.921875 -28.484375 4.441406 -28.6875 5.078125 -28.6875 C 5.722656 -28.6875 6.242188 -28.484375 6.640625 -28.078125 C 7.046875 -27.679688 7.25 -27.171875 7.25 -26.546875 C 7.25 -25.929688 7.046875 -25.421875 6.640625 -25.015625 C 6.242188 -24.617188 5.722656 -24.421875 5.078125 -24.421875 Z M 3.5625 0 L 3.5625 -20.46875 L 6.59375 -20.46875 L 6.59375 0 Z M 3.5625 0 "/></g></g></g><g fill="#000000" fill-opacity="1"><g transform="translate(579.066932, 663.949547)"><g><path d="M 11.75 0.390625 C 9.9375 0.390625 8.3125 -0.0195312 6.875 -0.84375 C 5.445312 -1.664062 4.316406 -2.878906 3.484375 -4.484375 C 2.660156 -6.085938 2.25 -8 2.25 -10.21875 C 2.25 -12.457031 2.660156 -14.378906 3.484375 -15.984375 C 4.316406 -17.585938 5.445312 -18.800781 6.875 -19.625 C 8.3125 -20.445312 9.9375 -20.859375 11.75 -20.859375 C 13.914062 -20.859375 15.632812 -20.445312 16.90625 -19.625 C 18.1875 -18.8125 19.113281 -17.722656 19.6875 -16.359375 L 17.625 -14.875 L 17.25 -14.875 C 16.695312 -16 15.984375 -16.820312 15.109375 -17.34375 C 14.242188 -17.875 13.125 -18.140625 11.75 -18.140625 C 10.488281 -18.140625 9.378906 -17.84375 8.421875 -17.25 C 7.472656 -16.65625 6.734375 -15.765625 6.203125 -14.578125 C 5.679688 -13.390625 5.421875 -11.9375 5.421875 -10.21875 C 5.421875 -8.507812 5.6875 -7.066406 6.21875 -5.890625 C 6.75 -4.710938 7.488281 -3.820312 8.4375 -3.21875 C 9.382812 -2.613281 10.488281 -2.3125 11.75 -2.3125 C 13.164062 -2.3125 14.34375 -2.632812 15.28125 -3.28125 C 16.21875 -3.925781 16.953125 -4.941406 17.484375 -6.328125 L 17.875 -6.328125 L 19.859375 -5.15625 C 19.328125 -3.4375 18.375 -2.082031 17 -1.09375 C 15.632812 -0.101562 13.882812 0.390625 11.75 0.390625 Z M 11.75 0.390625 "/></g></g></g><g fill="#000000" fill-opacity="1"><g transform="translate(600.159273, 663.949547)"><g><path d="M 8.4375 0.390625 C 6.425781 0.390625 4.851562 -0.132812 3.71875 -1.1875 C 2.582031 -2.238281 2.015625 -3.742188 2.015625 -5.703125 C 2.015625 -6.910156 2.265625 -7.929688 2.765625 -8.765625 C 3.273438 -9.597656 4.054688 -10.273438 5.109375 -10.796875 C 6.160156 -11.328125 7.53125 -11.738281 9.21875 -12.03125 C 10.707031 -12.269531 11.835938 -12.546875 12.609375 -12.859375 C 13.378906 -13.171875 13.894531 -13.515625 14.15625 -13.890625 C 14.425781 -14.273438 14.5625 -14.757812 14.5625 -15.34375 C 14.5625 -16.269531 14.242188 -16.976562 13.609375 -17.46875 C 12.972656 -17.96875 11.953125 -18.21875 10.546875 -18.21875 C 9.210938 -18.21875 8.070312 -17.960938 7.125 -17.453125 C 6.1875 -16.941406 5.320312 -16.175781 4.53125 -15.15625 L 4.15625 -15.15625 L 2.671875 -17.25 C 3.535156 -18.351562 4.632812 -19.226562 5.96875 -19.875 C 7.3125 -20.53125 8.835938 -20.859375 10.546875 -20.859375 C 12.953125 -20.859375 14.726562 -20.328125 15.875 -19.265625 C 17.019531 -18.210938 17.59375 -16.75 17.59375 -14.875 L 17.59375 -4.03125 C 17.59375 -2.882812 18.070312 -2.3125 19.03125 -2.3125 C 19.351562 -2.3125 19.664062 -2.367188 19.96875 -2.484375 L 20.21875 -2.40625 L 20.578125 -0.3125 C 20.359375 -0.164062 20.066406 -0.0507812 19.703125 0.03125 C 19.335938 0.113281 18.960938 0.15625 18.578125 0.15625 C 17.453125 0.15625 16.597656 -0.09375 16.015625 -0.59375 C 15.441406 -1.09375 15.078125 -1.820312 14.921875 -2.78125 L 14.53125 -2.828125 C 13.945312 -1.742188 13.160156 -0.9375 12.171875 -0.40625 C 11.179688 0.125 9.9375 0.390625 8.4375 0.390625 Z M 9.109375 -2.015625 C 10.242188 -2.015625 11.226562 -2.273438 12.0625 -2.796875 C 12.90625 -3.328125 13.546875 -4.066406 13.984375 -5.015625 C 14.429688 -5.972656 14.65625 -7.078125 14.65625 -8.328125 L 14.65625 -10.921875 L 14.3125 -11 C 13.851562 -10.675781 13.296875 -10.40625 12.640625 -10.1875 C 11.984375 -9.976562 11.066406 -9.785156 9.890625 -9.609375 C 8.703125 -9.453125 7.757812 -9.207031 7.0625 -8.875 C 6.363281 -8.539062 5.863281 -8.113281 5.5625 -7.59375 C 5.269531 -7.082031 5.125 -6.453125 5.125 -5.703125 C 5.125 -4.492188 5.472656 -3.578125 6.171875 -2.953125 C 6.878906 -2.328125 7.859375 -2.015625 9.109375 -2.015625 Z M 9.109375 -2.015625 "/></g></g></g><g fill="#000000" fill-opacity="1"><g transform="translate(621.325806, 663.949547)"><g><path d="M 13.84375 -3.25 L 14.8125 -1.078125 C 14.320312 -0.597656 13.6875 -0.234375 12.90625 0.015625 C 12.125 0.265625 11.273438 0.390625 10.359375 0.390625 C 6.441406 0.390625 4.484375 -1.585938 4.484375 -5.546875 L 4.484375 -18 L 0.921875 -18 L 0.921875 -20.484375 L 4.484375 -20.484375 L 4.484375 -24.8125 L 7.515625 -25.3125 L 7.515625 -20.484375 L 14.109375 -20.484375 L 14.109375 -18 L 7.515625 -18 L 7.515625 -5.84375 C 7.515625 -3.488281 8.535156 -2.3125 10.578125 -2.3125 C 11.691406 -2.3125 12.648438 -2.625 13.453125 -3.25 Z M 13.84375 -3.25 "/></g></g></g><g fill="#000000" fill-opacity="1"><g transform="translate(636.908539, 663.949547)"><g><path d="M 5.078125 -24.421875 C 4.441406 -24.421875 3.921875 -24.617188 3.515625 -25.015625 C 3.109375 -25.421875 2.90625 -25.929688 2.90625 -26.546875 C 2.90625 -27.171875 3.109375 -27.679688 3.515625 -28.078125 C 3.921875 -28.484375 4.441406 -28.6875 5.078125 -28.6875 C 5.722656 -28.6875 6.242188 -28.484375 6.640625 -28.078125 C 7.046875 -27.679688 7.25 -27.171875 7.25 -26.546875 C 7.25 -25.929688 7.046875 -25.421875 6.640625 -25.015625 C 6.242188 -24.617188 5.722656 -24.421875 5.078125 -24.421875 Z M 3.5625 0 L 3.5625 -20.46875 L 6.59375 -20.46875 L 6.59375 0 Z M 3.5625 0 "/></g></g></g><g fill="#000000" fill-opacity="1"><g transform="translate(647.055877, 663.949547)"><g><path d="M 11.75 0.390625 C 9.8125 0.390625 8.128906 -0.015625 6.703125 -0.828125 C 5.273438 -1.648438 4.175781 -2.851562 3.40625 -4.4375 C 2.632812 -6.03125 2.25 -7.957031 2.25 -10.21875 C 2.25 -12.488281 2.632812 -14.421875 3.40625 -16.015625 C 4.175781 -17.609375 5.273438 -18.8125 6.703125 -19.625 C 8.128906 -20.445312 9.8125 -20.859375 11.75 -20.859375 C 13.675781 -20.859375 15.351562 -20.445312 16.78125 -19.625 C 18.207031 -18.8125 19.304688 -17.609375 20.078125 -16.015625 C 20.859375 -14.421875 21.25 -12.488281 21.25 -10.21875 C 21.25 -7.957031 20.859375 -6.03125 20.078125 -4.4375 C 19.304688 -2.851562 18.207031 -1.648438 16.78125 -0.828125 C 15.351562 -0.015625 13.675781 0.390625 11.75 0.390625 Z M 11.75 -2.3125 C 13.789062 -2.3125 15.347656 -2.953125 16.421875 -4.234375 C 17.503906 -5.523438 18.046875 -7.519531 18.046875 -10.21875 C 18.046875 -12.925781 17.503906 -14.921875 16.421875 -16.203125 C 15.347656 -17.492188 13.789062 -18.140625 11.75 -18.140625 C 9.707031 -18.140625 8.140625 -17.492188 7.046875 -16.203125 C 5.960938 -14.910156 5.421875 -12.914062 5.421875 -10.21875 C 5.421875 -7.519531 5.960938 -5.523438 7.046875 -4.234375 C 8.140625 -2.953125 9.707031 -2.3125 11.75 -2.3125 Z M 11.75 -2.3125 "/></g></g></g><g fill="#000000" fill-opacity="1"><g transform="translate(670.541281, 663.949547)"><g><path d="M 3.5625 0 L 3.5625 -20.46875 L 6.4375 -20.46875 L 6.4375 -17.25 L 6.828125 -17.15625 C 7.503906 -18.363281 8.367188 -19.28125 9.421875 -19.90625 C 10.484375 -20.539062 11.773438 -20.859375 13.296875 -20.859375 C 15.765625 -20.859375 17.550781 -20.226562 18.65625 -18.96875 C 19.757812 -17.71875 20.3125 -15.785156 20.3125 -13.171875 L 20.3125 0 L 17.296875 0 L 17.296875 -13.09375 C 17.296875 -14.332031 17.132812 -15.328125 16.8125 -16.078125 C 16.5 -16.828125 16.007812 -17.367188 15.34375 -17.703125 C 14.6875 -18.046875 13.820312 -18.21875 12.75 -18.21875 C 10.90625 -18.21875 9.414062 -17.609375 8.28125 -16.390625 C 7.15625 -15.171875 6.59375 -13.207031 6.59375 -10.5 L 6.59375 0 Z M 3.5625 0 "/></g></g></g><g fill="#000000" fill-opacity="1"><g transform="translate(694.100888, 663.949547)"><g/></g></g><g fill="#000000" fill-opacity="1"><g transform="translate(703.413426, 663.949547)"><g><path d="M 11.75 0.390625 C 9.8125 0.390625 8.128906 -0.015625 6.703125 -0.828125 C 5.273438 -1.648438 4.175781 -2.851562 3.40625 -4.4375 C 2.632812 -6.03125 2.25 -7.957031 2.25 -10.21875 C 2.25 -12.488281 2.632812 -14.421875 3.40625 -16.015625 C 4.175781 -17.609375 5.273438 -18.8125 6.703125 -19.625 C 8.128906 -20.445312 9.8125 -20.859375 11.75 -20.859375 C 13.675781 -20.859375 15.351562 -20.445312 16.78125 -19.625 C 18.207031 -18.8125 19.304688 -17.609375 20.078125 -16.015625 C 20.859375 -14.421875 21.25 -12.488281 21.25 -10.21875 C 21.25 -7.957031 20.859375 -6.03125 20.078125 -4.4375 C 19.304688 -2.851562 18.207031 -1.648438 16.78125 -0.828125 C 15.351562 -0.015625 13.675781 0.390625 11.75 0.390625 Z M 11.75 -2.3125 C 13.789062 -2.3125 15.347656 -2.953125 16.421875 -4.234375 C 17.503906 -5.523438 18.046875 -7.519531 18.046875 -10.21875 C 18.046875 -12.925781 17.503906 -14.921875 16.421875 -16.203125 C 15.347656 -17.492188 13.789062 -18.140625 11.75 -18.140625 C 9.707031 -18.140625 8.140625 -17.492188 7.046875 -16.203125 C 5.960938 -14.910156 5.421875 -12.914062 5.421875 -10.21875 C 5.421875 -7.519531 5.960938 -5.523438 7.046875 -4.234375 C 8.140625 -2.953125 9.707031 -2.3125 11.75 -2.3125 Z M 11.75 -2.3125 "/></g></g></g><g fill="#000000" fill-opacity="1"><g transform="translate(726.898829, 663.949547)"><g><path d="M 4.5625 0 L 4.5625 -18 L 1 -18 L 1 -20.484375 L 4.5625 -20.484375 C 4.34375 -21.378906 4.234375 -22.226562 4.234375 -23.03125 C 4.234375 -24.351562 4.515625 -25.46875 5.078125 -26.375 C 5.640625 -27.28125 6.421875 -27.957031 7.421875 -28.40625 C 8.421875 -28.851562 9.578125 -29.078125 10.890625 -29.078125 C 12.929688 -29.078125 14.5 -28.640625 15.59375 -27.765625 L 14.421875 -25.625 L 14.03125 -25.546875 C 13.226562 -26.191406 12.179688 -26.515625 10.890625 -26.515625 C 9.691406 -26.515625 8.785156 -26.203125 8.171875 -25.578125 C 7.554688 -24.960938 7.25 -24.085938 7.25 -22.953125 C 7.25 -22.242188 7.363281 -21.421875 7.59375 -20.484375 L 14.109375 -20.484375 L 14.109375 -18 L 7.59375 -18 L 7.59375 0 Z M 4.5625 0 "/></g></g></g><g fill="#000000" fill-opacity="1"><g transform="translate(741.479815, 663.949547)"><g/></g></g><g fill="#000000" fill-opacity="1"><g transform="translate(750.792352, 663.949547)"><g><path d="M 7.296875 -27.125 L 7.296875 -2.640625 L 20.359375 -2.640625 L 20.359375 0 L 4.09375 0 L 4.09375 -27.125 Z M 7.296875 -27.125 "/></g></g></g><g fill="#000000" fill-opacity="1"><g transform="translate(772.292824, 663.949547)"><g><path d="M 5.078125 -24.421875 C 4.441406 -24.421875 3.921875 -24.617188 3.515625 -25.015625 C 3.109375 -25.421875 2.90625 -25.929688 2.90625 -26.546875 C 2.90625 -27.171875 3.109375 -27.679688 3.515625 -28.078125 C 3.921875 -28.484375 4.441406 -28.6875 5.078125 -28.6875 C 5.722656 -28.6875 6.242188 -28.484375 6.640625 -28.078125 C 7.046875 -27.679688 7.25 -27.171875 7.25 -26.546875 C 7.25 -25.929688 7.046875 -25.421875 6.640625 -25.015625 C 6.242188 -24.617188 5.722656 -24.421875 5.078125 -24.421875 Z M 3.5625 0 L 3.5625 -20.46875 L 6.59375 -20.46875 L 6.59375 0 Z M 3.5625 0 "/></g></g></g><g fill="#000000" fill-opacity="1"><g transform="translate(782.440162, 663.949547)"><g><path d="M 3.5625 0 L 3.5625 -20.46875 L 6.4375 -20.46875 L 6.4375 -17.25 L 6.828125 -17.15625 C 7.503906 -18.363281 8.367188 -19.28125 9.421875 -19.90625 C 10.484375 -20.539062 11.773438 -20.859375 13.296875 -20.859375 C 15.765625 -20.859375 17.550781 -20.226562 18.65625 -18.96875 C 19.757812 -17.71875 20.3125 -15.785156 20.3125 -13.171875 L 20.3125 0 L 17.296875 0 L 17.296875 -13.09375 C 17.296875 -14.332031 17.132812 -15.328125 16.8125 -16.078125 C 16.5 -16.828125 16.007812 -17.367188 15.34375 -17.703125 C 14.6875 -18.046875 13.820312 -18.21875 12.75 -18.21875 C 10.90625 -18.21875 9.414062 -17.609375 8.28125 -16.390625 C 7.15625 -15.171875 6.59375 -13.207031 6.59375 -10.5 L 6.59375 0 Z M 3.5625 0 "/></g></g></g><g fill="#000000" fill-opacity="1"><g transform="translate(805.999769, 663.949547)"><g><path d="M 19.5 -9.53125 L 5.4375 -9.53125 C 5.519531 -7.050781 6.113281 -5.226562 7.21875 -4.0625 C 8.332031 -2.894531 9.851562 -2.3125 11.78125 -2.3125 C 13.238281 -2.3125 14.410156 -2.570312 15.296875 -3.09375 C 16.191406 -3.613281 16.894531 -4.429688 17.40625 -5.546875 L 17.796875 -5.546875 L 19.765625 -4.375 C 19.171875 -2.894531 18.21875 -1.726562 16.90625 -0.875 C 15.601562 -0.03125 13.894531 0.390625 11.78125 0.390625 C 9.800781 0.390625 8.097656 0 6.671875 -0.78125 C 5.253906 -1.5625 4.160156 -2.742188 3.390625 -4.328125 C 2.628906 -5.910156 2.25 -7.875 2.25 -10.21875 C 2.25 -12.550781 2.648438 -14.515625 3.453125 -16.109375 C 4.265625 -17.703125 5.375 -18.890625 6.78125 -19.671875 C 8.1875 -20.460938 9.789062 -20.859375 11.59375 -20.859375 C 14.21875 -20.859375 16.265625 -20.117188 17.734375 -18.640625 C 19.210938 -17.160156 19.957031 -14.96875 19.96875 -12.0625 C 19.96875 -10.925781 19.941406 -10.160156 19.890625 -9.765625 Z M 16.984375 -12.0625 C 16.929688 -14.238281 16.445312 -15.820312 15.53125 -16.8125 C 14.613281 -17.800781 13.300781 -18.296875 11.59375 -18.296875 C 9.800781 -18.296875 8.394531 -17.796875 7.375 -16.796875 C 6.351562 -15.804688 5.734375 -14.226562 5.515625 -12.0625 Z M 16.984375 -12.0625 "/></g></g></g><g fill="#000000" fill-opacity="1"><g transform="translate(827.815618, 663.949547)"><g><path d="M 8.4375 0.390625 C 6.425781 0.390625 4.851562 -0.132812 3.71875 -1.1875 C 2.582031 -2.238281 2.015625 -3.742188 2.015625 -5.703125 C 2.015625 -6.910156 2.265625 -7.929688 2.765625 -8.765625 C 3.273438 -9.597656 4.054688 -10.273438 5.109375 -10.796875 C 6.160156 -11.328125 7.53125 -11.738281 9.21875 -12.03125 C 10.707031 -12.269531 11.835938 -12.546875 12.609375 -12.859375 C 13.378906 -13.171875 13.894531 -13.515625 14.15625 -13.890625 C 14.425781 -14.273438 14.5625 -14.757812 14.5625 -15.34375 C 14.5625 -16.269531 14.242188 -16.976562 13.609375 -17.46875 C 12.972656 -17.96875 11.953125 -18.21875 10.546875 -18.21875 C 9.210938 -18.21875 8.070312 -17.960938 7.125 -17.453125 C 6.1875 -16.941406 5.320312 -16.175781 4.53125 -15.15625 L 4.15625 -15.15625 L 2.671875 -17.25 C 3.535156 -18.351562 4.632812 -19.226562 5.96875 -19.875 C 7.3125 -20.53125 8.835938 -20.859375 10.546875 -20.859375 C 12.953125 -20.859375 14.726562 -20.328125 15.875 -19.265625 C 17.019531 -18.210938 17.59375 -16.75 17.59375 -14.875 L 17.59375 -4.03125 C 17.59375 -2.882812 18.070312 -2.3125 19.03125 -2.3125 C 19.351562 -2.3125 19.664062 -2.367188 19.96875 -2.484375 L 20.21875 -2.40625 L 20.578125 -0.3125 C 20.359375 -0.164062 20.066406 -0.0507812 19.703125 0.03125 C 19.335938 0.113281 18.960938 0.15625 18.578125 0.15625 C 17.453125 0.15625 16.597656 -0.09375 16.015625 -0.59375 C 15.441406 -1.09375 15.078125 -1.820312 14.921875 -2.78125 L 14.53125 -2.828125 C 13.945312 -1.742188 13.160156 -0.9375 12.171875 -0.40625 C 11.179688 0.125 9.9375 0.390625 8.4375 0.390625 Z M 9.109375 -2.015625 C 10.242188 -2.015625 11.226562 -2.273438 12.0625 -2.796875 C 12.90625 -3.328125 13.546875 -4.066406 13.984375 -5.015625 C 14.429688 -5.972656 14.65625 -7.078125 14.65625 -8.328125 L 14.65625 -10.921875 L 14.3125 -11 C 13.851562 -10.675781 13.296875 -10.40625 12.640625 -10.1875 C 11.984375 -9.976562 11.066406 -9.785156 9.890625 -9.609375 C 8.703125 -9.453125 7.757812 -9.207031 7.0625 -8.875 C 6.363281 -8.539062 5.863281 -8.113281 5.5625 -7.59375 C 5.269531 -7.082031 5.125 -6.453125 5.125 -5.703125 C 5.125 -4.492188 5.472656 -3.578125 6.171875 -2.953125 C 6.878906 -2.328125 7.859375 -2.015625 9.109375 -2.015625 Z M 9.109375 -2.015625 "/></g></g></g><g fill="#000000" fill-opacity="1"><g transform="translate(848.982151, 663.949547)"><g><path d="M 3.5625 0 L 3.5625 -20.46875 L 6.4375 -20.46875 L 6.4375 -17.25 L 6.828125 -17.15625 C 7.773438 -19.488281 9.566406 -20.65625 12.203125 -20.65625 C 13.609375 -20.65625 14.65625 -20.398438 15.34375 -19.890625 L 14.5625 -17.328125 L 14.1875 -17.25 C 13.425781 -17.632812 12.585938 -17.828125 11.671875 -17.828125 C 10.035156 -17.828125 8.78125 -17.210938 7.90625 -15.984375 C 7.03125 -14.765625 6.59375 -12.78125 6.59375 -10.03125 L 6.59375 0 Z M 3.5625 0 "/></g></g></g><g fill="#000000" fill-opacity="1"><g transform="translate(864.787494, 663.949547)"><g/></g></g><g fill="#000000" fill-opacity="1"><g transform="translate(874.100009, 663.949547)"><g><path d="M 24.421875 0 L 21 0 L 18.5 -7.4375 L 6.9375 -7.4375 L 4.421875 0 L 1.078125 0 L 10.546875 -27.125 L 14.953125 -27.125 Z M 12.484375 -23.84375 L 7.828125 -10.109375 L 17.59375 -10.109375 L 12.953125 -23.84375 Z M 12.484375 -23.84375 "/></g></g></g><g fill="#000000" fill-opacity="1"><g transform="translate(899.588929, 663.949547)"><g><path d="M 8.140625 0.390625 C 6.691406 0.390625 5.550781 -0.0195312 4.71875 -0.84375 C 3.894531 -1.664062 3.484375 -2.894531 3.484375 -4.53125 L 3.484375 -28.6875 L 6.515625 -28.6875 L 6.515625 -4.734375 C 6.515625 -3.878906 6.675781 -3.257812 7 -2.875 C 7.332031 -2.5 7.84375 -2.3125 8.53125 -2.3125 C 8.957031 -2.3125 9.382812 -2.382812 9.8125 -2.53125 L 10.078125 -2.453125 L 10.421875 -0.078125 C 10.203125 0.078125 9.882812 0.191406 9.46875 0.265625 C 9.050781 0.347656 8.609375 0.390625 8.140625 0.390625 Z M 8.140625 0.390625 "/></g></g></g><g fill="#000000" fill-opacity="1"><g transform="translate(910.719453, 663.949547)"><g><path d="M 10.546875 8.6875 C 7.316406 8.6875 4.957031 8.144531 3.46875 7.0625 C 1.988281 5.988281 1.25 4.5625 1.25 2.78125 C 1.25 1.632812 1.59375 0.71875 2.28125 0.03125 C 2.976562 -0.644531 3.988281 -1.128906 5.3125 -1.421875 L 5.3125 -1.8125 C 4.675781 -2.175781 4.203125 -2.597656 3.890625 -3.078125 C 3.578125 -3.554688 3.421875 -4.132812 3.421875 -4.8125 C 3.421875 -5.601562 3.671875 -6.242188 4.171875 -6.734375 C 4.671875 -7.234375 5.414062 -7.613281 6.40625 -7.875 L 6.40625 -8.25 C 4.175781 -9.425781 3.0625 -11.335938 3.0625 -13.984375 C 3.0625 -15.328125 3.363281 -16.515625 3.96875 -17.546875 C 4.570312 -18.585938 5.4375 -19.398438 6.5625 -19.984375 C 7.6875 -20.566406 9 -20.859375 10.5 -20.859375 C 12.21875 -20.859375 13.65625 -20.476562 14.8125 -19.71875 C 15.238281 -20.207031 15.5625 -20.722656 15.78125 -21.265625 C 16 -21.816406 16.140625 -22.441406 16.203125 -23.140625 L 16.59375 -23.375 L 19.078125 -22.78125 C 18.953125 -21.75 18.640625 -20.875 18.140625 -20.15625 C 17.640625 -19.4375 16.929688 -18.84375 16.015625 -18.375 L 16.015625 -17.984375 C 16.671875 -17.460938 17.15625 -16.851562 17.46875 -16.15625 C 17.78125 -15.457031 17.9375 -14.644531 17.9375 -13.71875 C 17.9375 -12.425781 17.628906 -11.265625 17.015625 -10.234375 C 16.398438 -9.210938 15.523438 -8.40625 14.390625 -7.8125 C 13.265625 -7.226562 11.96875 -6.9375 10.5 -6.9375 C 10.332031 -6.9375 10.023438 -6.953125 9.578125 -6.984375 C 9.078125 -7.003906 8.710938 -7.015625 8.484375 -7.015625 C 7.835938 -7.015625 7.320312 -6.847656 6.9375 -6.515625 C 6.550781 -6.179688 6.359375 -5.753906 6.359375 -5.234375 C 6.359375 -4.585938 6.566406 -4.113281 6.984375 -3.8125 C 7.398438 -3.507812 8.082031 -3.335938 9.03125 -3.296875 L 13.875 -3.140625 C 15.96875 -3.066406 17.519531 -2.578125 18.53125 -1.671875 C 19.539062 -0.773438 20.046875 0.492188 20.046875 2.140625 C 20.046875 3.359375 19.71875 4.457031 19.0625 5.4375 C 18.40625 6.425781 17.363281 7.210938 15.9375 7.796875 C 14.519531 8.390625 12.722656 8.6875 10.546875 8.6875 Z M 10.5 -9.53125 C 11.945312 -9.53125 13.066406 -9.90625 13.859375 -10.65625 C 14.648438 -11.414062 15.046875 -12.476562 15.046875 -13.84375 C 15.046875 -15.25 14.648438 -16.335938 13.859375 -17.109375 C 13.078125 -17.878906 11.957031 -18.265625 10.5 -18.265625 C 9.039062 -18.265625 7.925781 -17.878906 7.15625 -17.109375 C 6.394531 -16.347656 6.015625 -15.257812 6.015625 -13.84375 C 6.015625 -12.46875 6.394531 -11.40625 7.15625 -10.65625 C 7.925781 -9.90625 9.039062 -9.53125 10.5 -9.53125 Z M 10.546875 6.09375 C 12.046875 6.09375 13.273438 5.921875 14.234375 5.578125 C 15.191406 5.242188 15.878906 4.800781 16.296875 4.25 C 16.722656 3.707031 16.9375 3.09375 16.9375 2.40625 C 16.9375 1.800781 16.820312 1.3125 16.59375 0.9375 C 16.363281 0.570312 15.992188 0.296875 15.484375 0.109375 C 14.984375 -0.078125 14.296875 -0.191406 13.421875 -0.234375 L 8.828125 -0.46875 L 8.1875 -0.46875 C 5.625 -0.425781 4.34375 0.570312 4.34375 2.53125 C 4.34375 4.90625 6.410156 6.09375 10.546875 6.09375 Z M 10.546875 6.09375 "/></g></g></g><g fill="#000000" fill-opacity="1"><g transform="translate(931.681915, 663.949547)"><g><path d="M 19.5 -9.53125 L 5.4375 -9.53125 C 5.519531 -7.050781 6.113281 -5.226562 7.21875 -4.0625 C 8.332031 -2.894531 9.851562 -2.3125 11.78125 -2.3125 C 13.238281 -2.3125 14.410156 -2.570312 15.296875 -3.09375 C 16.191406 -3.613281 16.894531 -4.429688 17.40625 -5.546875 L 17.796875 -5.546875 L 19.765625 -4.375 C 19.171875 -2.894531 18.21875 -1.726562 16.90625 -0.875 C 15.601562 -0.03125 13.894531 0.390625 11.78125 0.390625 C 9.800781 0.390625 8.097656 0 6.671875 -0.78125 C 5.253906 -1.5625 4.160156 -2.742188 3.390625 -4.328125 C 2.628906 -5.910156 2.25 -7.875 2.25 -10.21875 C 2.25 -12.550781 2.648438 -14.515625 3.453125 -16.109375 C 4.265625 -17.703125 5.375 -18.890625 6.78125 -19.671875 C 8.1875 -20.460938 9.789062 -20.859375 11.59375 -20.859375 C 14.21875 -20.859375 16.265625 -20.117188 17.734375 -18.640625 C 19.210938 -17.160156 19.957031 -14.96875 19.96875 -12.0625 C 19.96875 -10.925781 19.941406 -10.160156 19.890625 -9.765625 Z M 16.984375 -12.0625 C 16.929688 -14.238281 16.445312 -15.820312 15.53125 -16.8125 C 14.613281 -17.800781 13.300781 -18.296875 11.59375 -18.296875 C 9.800781 -18.296875 8.394531 -17.796875 7.375 -16.796875 C 6.351562 -15.804688 5.734375 -14.226562 5.515625 -12.0625 Z M 16.984375 -12.0625 "/></g></g></g><g fill="#000000" fill-opacity="1"><g transform="translate(953.49774, 663.949547)"><g><path d="M 13.59375 0.390625 C 12.070312 0.390625 10.75 0.0976562 9.625 -0.484375 C 8.507812 -1.078125 7.628906 -1.859375 6.984375 -2.828125 L 6.59375 -2.75 L 6.59375 0 L 3.5625 0 L 3.5625 -28.6875 L 6.59375 -28.6875 L 6.59375 -17.40625 L 6.984375 -17.328125 C 8.535156 -19.679688 10.796875 -20.859375 13.765625 -20.859375 C 15.453125 -20.859375 16.925781 -20.46875 18.1875 -19.6875 C 19.445312 -18.90625 20.425781 -17.71875 21.125 -16.125 C 21.820312 -14.539062 22.171875 -12.570312 22.171875 -10.21875 C 22.171875 -7.894531 21.800781 -5.9375 21.0625 -4.34375 C 20.332031 -2.757812 19.320312 -1.570312 18.03125 -0.78125 C 16.75 0 15.269531 0.390625 13.59375 0.390625 Z M 12.875 -2.3125 C 16.957031 -2.3125 19 -4.945312 19 -10.21875 C 19 -12.957031 18.46875 -14.960938 17.40625 -16.234375 C 16.34375 -17.503906 14.832031 -18.140625 12.875 -18.140625 C 10.957031 -18.140625 9.429688 -17.488281 8.296875 -16.1875 C 7.160156 -14.882812 6.59375 -12.894531 6.59375 -10.21875 C 6.59375 -7.5625 7.160156 -5.578125 8.296875 -4.265625 C 9.429688 -2.960938 10.957031 -2.3125 12.875 -2.3125 Z M 12.875 -2.3125 "/></g></g></g><g fill="#000000" fill-opacity="1"><g transform="translate(977.910688, 663.949547)"><g><path d="M 3.5625 0 L 3.5625 -20.46875 L 6.4375 -20.46875 L 6.4375 -17.25 L 6.828125 -17.15625 C 7.773438 -19.488281 9.566406 -20.65625 12.203125 -20.65625 C 13.609375 -20.65625 14.65625 -20.398438 15.34375 -19.890625 L 14.5625 -17.328125 L 14.1875 -17.25 C 13.425781 -17.632812 12.585938 -17.828125 11.671875 -17.828125 C 10.035156 -17.828125 8.78125 -17.210938 7.90625 -15.984375 C 7.03125 -14.765625 6.59375 -12.78125 6.59375 -10.03125 L 6.59375 0 Z M 3.5625 0 "/></g></g></g><g fill="#000000" fill-opacity="1"><g transform="translate(993.716031, 663.949547)"><g><path d="M 8.4375 0.390625 C 6.425781 0.390625 4.851562 -0.132812 3.71875 -1.1875 C 2.582031 -2.238281 2.015625 -3.742188 2.015625 -5.703125 C 2.015625 -6.910156 2.265625 -7.929688 2.765625 -8.765625 C 3.273438 -9.597656 4.054688 -10.273438 5.109375 -10.796875 C 6.160156 -11.328125 7.53125 -11.738281 9.21875 -12.03125 C 10.707031 -12.269531 11.835938 -12.546875 12.609375 -12.859375 C 13.378906 -13.171875 13.894531 -13.515625 14.15625 -13.890625 C 14.425781 -14.273438 14.5625 -14.757812 14.5625 -15.34375 C 14.5625 -16.269531 14.242188 -16.976562 13.609375 -17.46875 C 12.972656 -17.96875 11.953125 -18.21875 10.546875 -18.21875 C 9.210938 -18.21875 8.070312 -17.960938 7.125 -17.453125 C 6.1875 -16.941406 5.320312 -16.175781 4.53125 -15.15625 L 4.15625 -15.15625 L 2.671875 -17.25 C 3.535156 -18.351562 4.632812 -19.226562 5.96875 -19.875 C 7.3125 -20.53125 8.835938 -20.859375 10.546875 -20.859375 C 12.953125 -20.859375 14.726562 -20.328125 15.875 -19.265625 C 17.019531 -18.210938 17.59375 -16.75 17.59375 -14.875 L 17.59375 -4.03125 C 17.59375 -2.882812 18.070312 -2.3125 19.03125 -2.3125 C 19.351562 -2.3125 19.664062 -2.367188 19.96875 -2.484375 L 20.21875 -2.40625 L 20.578125 -0.3125 C 20.359375 -0.164062 20.066406 -0.0507812 19.703125 0.03125 C 19.335938 0.113281 18.960938 0.15625 18.578125 0.15625 C 17.453125 0.15625 16.597656 -0.09375 16.015625 -0.59375 C 15.441406 -1.09375 15.078125 -1.820312 14.921875 -2.78125 L 14.53125 -2.828125 C 13.945312 -1.742188 13.160156 -0.9375 12.171875 -0.40625 C 11.179688 0.125 9.9375 0.390625 8.4375 0.390625 Z M 9.109375 -2.015625 C 10.242188 -2.015625 11.226562 -2.273438 12.0625 -2.796875 C 12.90625 -3.328125 13.546875 -4.066406 13.984375 -5.015625 C 14.429688 -5.972656 14.65625 -7.078125 14.65625 -8.328125 L 14.65625 -10.921875 L 14.3125 -11 C 13.851562 -10.675781 13.296875 -10.40625 12.640625 -10.1875 C 11.984375 -9.976562 11.066406 -9.785156 9.890625 -9.609375 C 8.703125 -9.453125 7.757812 -9.207031 7.0625 -8.875 C 6.363281 -8.539062 5.863281 -8.113281 5.5625 -7.59375 C 5.269531 -7.082031 5.125 -6.453125 5.125 -5.703125 C 5.125 -4.492188 5.472656 -3.578125 6.171875 -2.953125 C 6.878906 -2.328125 7.859375 -2.015625 9.109375 -2.015625 Z M 9.109375 -2.015625 "/></g></g></g><g fill="#000000" fill-opacity="1"><g transform="translate(380.539968, 575.249463)"><g><path d="M 17.328125 0.515625 C 14.347656 0.515625 11.769531 -0.160156 9.59375 -1.515625 C 7.425781 -2.878906 5.753906 -4.929688 4.578125 -7.671875 C 3.398438 -10.421875 2.8125 -13.8125 2.8125 -17.84375 C 2.8125 -21.914062 3.519531 -25.320312 4.9375 -28.0625 C 6.351562 -30.800781 8.316406 -32.84375 10.828125 -34.1875 C 13.335938 -35.53125 16.253906 -36.203125 19.578125 -36.203125 C 22.992188 -36.203125 25.90625 -35.566406 28.3125 -34.296875 C 30.726562 -33.023438 32.425781 -31.140625 33.40625 -28.640625 L 28.25 -25.515625 L 27.640625 -25.53125 C 26.898438 -27.132812 25.867188 -28.300781 24.546875 -29.03125 C 23.222656 -29.757812 21.566406 -30.125 19.578125 -30.125 C 16.503906 -30.125 14.148438 -29.148438 12.515625 -27.203125 C 10.890625 -25.265625 10.078125 -22.144531 10.078125 -17.84375 C 10.078125 -13.53125 10.835938 -10.394531 12.359375 -8.4375 C 13.890625 -6.488281 16.140625 -5.515625 19.109375 -5.515625 C 21.679688 -5.515625 23.578125 -6.09375 24.796875 -7.25 C 26.023438 -8.40625 26.640625 -10.128906 26.640625 -12.421875 L 26.640625 -13.96875 L 18.1875 -13.96875 L 18.1875 -19.703125 L 33.640625 -19.703125 L 33.640625 0 L 26.90625 0 L 26.90625 -4.78125 L 26.390625 -4.859375 C 25.660156 -3.148438 24.550781 -1.828125 23.0625 -0.890625 C 21.570312 0.046875 19.660156 0.515625 17.328125 0.515625 Z M 17.328125 0.515625 "/></g></g></g><g fill="#000000" fill-opacity="1"><g transform="translate(417.765594, 575.249463)"><g><path d="M 15.65625 0.515625 C 13.007812 0.515625 10.691406 -0.0234375 8.703125 -1.109375 C 6.710938 -2.191406 5.164062 -3.78125 4.0625 -5.875 C 2.96875 -7.96875 2.421875 -10.492188 2.421875 -13.453125 C 2.421875 -16.410156 2.96875 -18.9375 4.0625 -21.03125 C 5.164062 -23.132812 6.710938 -24.726562 8.703125 -25.8125 C 10.691406 -26.894531 13.007812 -27.4375 15.65625 -27.4375 C 18.289062 -27.4375 20.601562 -26.894531 22.59375 -25.8125 C 24.59375 -24.726562 26.144531 -23.132812 27.25 -21.03125 C 28.351562 -18.9375 28.90625 -16.410156 28.90625 -13.453125 C 28.90625 -10.492188 28.351562 -7.96875 27.25 -5.875 C 26.144531 -3.78125 24.59375 -2.191406 22.59375 -1.109375 C 20.601562 -0.0234375 18.289062 0.515625 15.65625 0.515625 Z M 15.65625 -5.21875 C 19.832031 -5.21875 21.921875 -7.960938 21.921875 -13.453125 C 21.921875 -16.296875 21.382812 -18.378906 20.3125 -19.703125 C 19.238281 -21.035156 17.6875 -21.703125 15.65625 -21.703125 C 11.46875 -21.703125 9.375 -18.953125 9.375 -13.453125 C 9.375 -7.960938 11.46875 -5.21875 15.65625 -5.21875 Z M 15.65625 -5.21875 "/></g></g></g><g fill="#000000" fill-opacity="1"><g transform="translate(449.05953, 575.249463)"><g><path d="M 15.65625 0.515625 C 13.007812 0.515625 10.691406 -0.0234375 8.703125 -1.109375 C 6.710938 -2.191406 5.164062 -3.78125 4.0625 -5.875 C 2.96875 -7.96875 2.421875 -10.492188 2.421875 -13.453125 C 2.421875 -16.410156 2.96875 -18.9375 4.0625 -21.03125 C 5.164062 -23.132812 6.710938 -24.726562 8.703125 -25.8125 C 10.691406 -26.894531 13.007812 -27.4375 15.65625 -27.4375 C 18.289062 -27.4375 20.601562 -26.894531 22.59375 -25.8125 C 24.59375 -24.726562 26.144531 -23.132812 27.25 -21.03125 C 28.351562 -18.9375 28.90625 -16.410156 28.90625 -13.453125 C 28.90625 -10.492188 28.351562 -7.96875 27.25 -5.875 C 26.144531 -3.78125 24.59375 -2.191406 22.59375 -1.109375 C 20.601562 -0.0234375 18.289062 0.515625 15.65625 0.515625 Z M 15.65625 -5.21875 C 19.832031 -5.21875 21.921875 -7.960938 21.921875 -13.453125 C 21.921875 -16.296875 21.382812 -18.378906 20.3125 -19.703125 C 19.238281 -21.035156 17.6875 -21.703125 15.65625 -21.703125 C 11.46875 -21.703125 9.375 -18.953125 9.375 -13.453125 C 9.375 -7.960938 11.46875 -5.21875 15.65625 -5.21875 Z M 15.65625 -5.21875 "/></g></g></g><g fill="#000000" fill-opacity="1"><g transform="translate(480.353466, 575.249463)"><g><path d="M 13.96875 11.421875 C 9.519531 11.421875 6.238281 10.769531 4.125 9.46875 C 2.007812 8.164062 0.953125 6.351562 0.953125 4.03125 C 0.953125 2.613281 1.398438 1.453125 2.296875 0.546875 C 3.203125 -0.359375 4.503906 -0.960938 6.203125 -1.265625 L 6.203125 -1.78125 C 5.285156 -2.332031 4.628906 -2.945312 4.234375 -3.625 C 3.835938 -4.300781 3.640625 -5.085938 3.640625 -5.984375 C 3.640625 -8.148438 5.046875 -9.609375 7.859375 -10.359375 L 7.859375 -10.859375 C 6.410156 -11.691406 5.316406 -12.722656 4.578125 -13.953125 C 3.847656 -15.179688 3.484375 -16.664062 3.484375 -18.40625 C 3.484375 -20.195312 3.894531 -21.769531 4.71875 -23.125 C 5.539062 -24.488281 6.742188 -25.546875 8.328125 -26.296875 C 9.921875 -27.054688 11.820312 -27.4375 14.03125 -27.4375 C 16.28125 -27.4375 18.070312 -27.046875 19.40625 -26.265625 C 20.238281 -27.472656 20.71875 -28.863281 20.84375 -30.4375 L 21.359375 -30.765625 L 26.21875 -29.5625 C 26.070312 -28.28125 25.695312 -27.203125 25.09375 -26.328125 C 24.488281 -25.460938 23.554688 -24.6875 22.296875 -24 L 22.296875 -23.46875 C 23.804688 -22.125 24.5625 -20.257812 24.5625 -17.875 C 24.5625 -16.207031 24.144531 -14.710938 23.3125 -13.390625 C 22.488281 -12.078125 21.28125 -11.035156 19.6875 -10.265625 C 18.101562 -9.503906 16.21875 -9.125 14.03125 -9.125 L 13.015625 -9.15625 C 12.359375 -9.1875 11.898438 -9.203125 11.640625 -9.203125 C 11.023438 -9.203125 10.539062 -9.035156 10.1875 -8.703125 C 9.84375 -8.367188 9.671875 -7.941406 9.671875 -7.421875 C 9.671875 -6.847656 9.894531 -6.398438 10.34375 -6.078125 C 10.800781 -5.765625 11.472656 -5.59375 12.359375 -5.5625 L 18.390625 -5.34375 C 24.335938 -5.164062 27.3125 -2.601562 27.3125 2.34375 C 27.3125 4.082031 26.867188 5.628906 25.984375 6.984375 C 25.097656 8.347656 23.660156 9.425781 21.671875 10.21875 C 19.691406 11.019531 17.125 11.421875 13.96875 11.421875 Z M 14.03125 -13.875 C 15.332031 -13.875 16.347656 -14.253906 17.078125 -15.015625 C 17.816406 -15.773438 18.1875 -16.863281 18.1875 -18.28125 C 18.1875 -19.695312 17.816406 -20.785156 17.078125 -21.546875 C 16.347656 -22.304688 15.332031 -22.6875 14.03125 -22.6875 C 12.71875 -22.6875 11.703125 -22.304688 10.984375 -21.546875 C 10.265625 -20.785156 9.90625 -19.695312 9.90625 -18.28125 C 9.90625 -16.851562 10.265625 -15.757812 10.984375 -15 C 11.703125 -14.25 12.71875 -13.875 14.03125 -13.875 Z M 13.96875 6.515625 C 16.28125 6.515625 17.957031 6.1875 19 5.53125 C 20.050781 4.882812 20.578125 4.039062 20.578125 3 C 20.578125 2.15625 20.304688 1.53125 19.765625 1.125 C 19.234375 0.726562 18.382812 0.515625 17.21875 0.484375 L 11.890625 0.25 C 11.710938 0.25 11.546875 0.238281 11.390625 0.21875 C 11.234375 0.207031 11.082031 0.203125 10.9375 0.203125 C 9.800781 0.203125 8.9375 0.441406 8.34375 0.921875 C 7.75 1.410156 7.453125 2.085938 7.453125 2.953125 C 7.453125 4.085938 7.992188 4.960938 9.078125 5.578125 C 10.171875 6.203125 11.800781 6.515625 13.96875 6.515625 Z M 13.96875 6.515625 "/></g></g></g><g fill="#000000" fill-opacity="1"><g transform="translate(508.352019, 575.249463)"><g><path d="M 11.1875 0.515625 C 8.757812 0.515625 6.90625 -0.140625 5.625 -1.453125 C 4.351562 -2.765625 3.71875 -4.753906 3.71875 -7.421875 L 3.71875 -37.75 L 10.46875 -37.75 L 10.46875 -7.6875 C 10.46875 -6.039062 11.15625 -5.21875 12.53125 -5.21875 C 12.914062 -5.21875 13.328125 -5.285156 13.765625 -5.421875 L 14.109375 -5.328125 L 14.71875 -0.125 C 14.34375 0.0703125 13.847656 0.226562 13.234375 0.34375 C 12.617188 0.457031 11.9375 0.515625 11.1875 0.515625 Z M 11.1875 0.515625 "/></g></g></g><g fill="#000000" fill-opacity="1"><g transform="translate(523.828115, 575.249463)"><g><path d="M 26.609375 -11.9375 L 9.296875 -11.9375 C 9.492188 -9.59375 10.160156 -7.882812 11.296875 -6.8125 C 12.441406 -5.75 14 -5.21875 15.96875 -5.21875 C 17.507812 -5.21875 18.757812 -5.503906 19.71875 -6.078125 C 20.6875 -6.660156 21.460938 -7.539062 22.046875 -8.71875 L 22.5625 -8.71875 L 27.046875 -5.828125 C 26.171875 -3.941406 24.84375 -2.410156 23.0625 -1.234375 C 21.289062 -0.0664062 18.925781 0.515625 15.96875 0.515625 C 13.1875 0.515625 10.78125 -0.0078125 8.75 -1.0625 C 6.726562 -2.125 5.164062 -3.703125 4.0625 -5.796875 C 2.96875 -7.890625 2.421875 -10.441406 2.421875 -13.453125 C 2.421875 -16.515625 3 -19.09375 4.15625 -21.1875 C 5.3125 -23.289062 6.875 -24.859375 8.84375 -25.890625 C 10.8125 -26.921875 13.023438 -27.4375 15.484375 -27.4375 C 19.285156 -27.4375 22.195312 -26.425781 24.21875 -24.40625 C 26.25 -22.394531 27.265625 -19.4375 27.265625 -15.53125 C 27.265625 -14.113281 27.21875 -13.015625 27.125 -12.234375 Z M 20.796875 -16.3125 C 20.734375 -18.363281 20.257812 -19.851562 19.375 -20.78125 C 18.488281 -21.71875 17.191406 -22.1875 15.484375 -22.1875 C 12.066406 -22.1875 10.054688 -20.226562 9.453125 -16.3125 Z M 20.796875 -16.3125 "/></g></g></g><g fill="#000000" fill-opacity="1"><g transform="translate(553.096, 575.249463)"><g/></g></g><g fill="#000000" fill-opacity="1"><g transform="translate(564.886149, 575.249463)"><g><path d="M 18.4375 -35.6875 C 20.988281 -35.6875 23.171875 -35.21875 24.984375 -34.28125 C 26.796875 -33.351562 28.164062 -32.046875 29.09375 -30.359375 C 30.03125 -28.671875 30.5 -26.710938 30.5 -24.484375 C 30.5 -22.253906 30.03125 -20.300781 29.09375 -18.625 C 28.164062 -16.945312 26.796875 -15.640625 24.984375 -14.703125 C 23.171875 -13.773438 20.988281 -13.3125 18.4375 -13.3125 L 11.6875 -13.3125 L 11.6875 0 L 4.640625 0 L 4.640625 -35.6875 Z M 17.5 -18.890625 C 21.425781 -18.890625 23.390625 -20.753906 23.390625 -24.484375 C 23.390625 -28.234375 21.425781 -30.109375 17.5 -30.109375 L 11.6875 -30.109375 L 11.6875 -18.890625 Z M 17.5 -18.890625 "/></g></g></g><g fill="#000000" fill-opacity="1"><g transform="translate(597.498239, 575.249463)"><g><path d="M 10.5 0.515625 C 8.769531 0.515625 7.269531 0.195312 6 -0.4375 C 4.738281 -1.070312 3.765625 -2.003906 3.078125 -3.234375 C 2.390625 -4.460938 2.046875 -5.941406 2.046875 -7.671875 C 2.046875 -9.265625 2.390625 -10.601562 3.078125 -11.6875 C 3.765625 -12.769531 4.820312 -13.65625 6.25 -14.34375 C 7.6875 -15.03125 9.554688 -15.5625 11.859375 -15.9375 C 13.472656 -16.195312 14.695312 -16.484375 15.53125 -16.796875 C 16.375 -17.109375 16.941406 -17.457031 17.234375 -17.84375 C 17.523438 -18.238281 17.671875 -18.738281 17.671875 -19.34375 C 17.671875 -20.195312 17.367188 -20.851562 16.765625 -21.3125 C 16.171875 -21.769531 15.171875 -22 13.765625 -22 C 12.273438 -22 10.851562 -21.664062 9.5 -21 C 8.144531 -20.332031 6.972656 -19.453125 5.984375 -18.359375 L 5.5 -18.359375 L 2.65625 -22.625 C 4.03125 -24.144531 5.703125 -25.328125 7.671875 -26.171875 C 9.640625 -27.015625 11.785156 -27.4375 14.109375 -27.4375 C 17.671875 -27.4375 20.25 -26.679688 21.84375 -25.171875 C 23.445312 -23.660156 24.25 -21.507812 24.25 -18.71875 L 24.25 -7.03125 C 24.25 -5.820312 24.773438 -5.21875 25.828125 -5.21875 C 26.234375 -5.21875 26.632812 -5.289062 27.03125 -5.4375 L 27.375 -5.34375 L 27.859375 -0.640625 C 27.484375 -0.390625 26.960938 -0.1875 26.296875 -0.03125 C 25.628906 0.125 24.894531 0.203125 24.09375 0.203125 C 22.488281 0.203125 21.234375 -0.101562 20.328125 -0.71875 C 19.421875 -1.34375 18.773438 -2.316406 18.390625 -3.640625 L 17.875 -3.6875 C 16.550781 -0.882812 14.09375 0.515625 10.5 0.515625 Z M 12.640625 -4.546875 C 14.203125 -4.546875 15.453125 -5.066406 16.390625 -6.109375 C 17.328125 -7.160156 17.796875 -8.625 17.796875 -10.5 L 17.796875 -13.234375 L 17.328125 -13.328125 C 16.921875 -13.003906 16.390625 -12.734375 15.734375 -12.515625 C 15.078125 -12.296875 14.128906 -12.078125 12.890625 -11.859375 C 11.421875 -11.617188 10.363281 -11.203125 9.71875 -10.609375 C 9.082031 -10.015625 8.765625 -9.171875 8.765625 -8.078125 C 8.765625 -6.921875 9.101562 -6.039062 9.78125 -5.4375 C 10.46875 -4.84375 11.421875 -4.546875 12.640625 -4.546875 Z M 12.640625 -4.546875 "/></g></g></g><g fill="#000000" fill-opacity="1"><g transform="translate(625.887367, 575.249463)"><g><path d="M 13.96875 11.421875 C 9.519531 11.421875 6.238281 10.769531 4.125 9.46875 C 2.007812 8.164062 0.953125 6.351562 0.953125 4.03125 C 0.953125 2.613281 1.398438 1.453125 2.296875 0.546875 C 3.203125 -0.359375 4.503906 -0.960938 6.203125 -1.265625 L 6.203125 -1.78125 C 5.285156 -2.332031 4.628906 -2.945312 4.234375 -3.625 C 3.835938 -4.300781 3.640625 -5.085938 3.640625 -5.984375 C 3.640625 -8.148438 5.046875 -9.609375 7.859375 -10.359375 L 7.859375 -10.859375 C 6.410156 -11.691406 5.316406 -12.722656 4.578125 -13.953125 C 3.847656 -15.179688 3.484375 -16.664062 3.484375 -18.40625 C 3.484375 -20.195312 3.894531 -21.769531 4.71875 -23.125 C 5.539062 -24.488281 6.742188 -25.546875 8.328125 -26.296875 C 9.921875 -27.054688 11.820312 -27.4375 14.03125 -27.4375 C 16.28125 -27.4375 18.070312 -27.046875 19.40625 -26.265625 C 20.238281 -27.472656 20.71875 -28.863281 20.84375 -30.4375 L 21.359375 -30.765625 L 26.21875 -29.5625 C 26.070312 -28.28125 25.695312 -27.203125 25.09375 -26.328125 C 24.488281 -25.460938 23.554688 -24.6875 22.296875 -24 L 22.296875 -23.46875 C 23.804688 -22.125 24.5625 -20.257812 24.5625 -17.875 C 24.5625 -16.207031 24.144531 -14.710938 23.3125 -13.390625 C 22.488281 -12.078125 21.28125 -11.035156 19.6875 -10.265625 C 18.101562 -9.503906 16.21875 -9.125 14.03125 -9.125 L 13.015625 -9.15625 C 12.359375 -9.1875 11.898438 -9.203125 11.640625 -9.203125 C 11.023438 -9.203125 10.539062 -9.035156 10.1875 -8.703125 C 9.84375 -8.367188 9.671875 -7.941406 9.671875 -7.421875 C 9.671875 -6.847656 9.894531 -6.398438 10.34375 -6.078125 C 10.800781 -5.765625 11.472656 -5.59375 12.359375 -5.5625 L 18.390625 -5.34375 C 24.335938 -5.164062 27.3125 -2.601562 27.3125 2.34375 C 27.3125 4.082031 26.867188 5.628906 25.984375 6.984375 C 25.097656 8.347656 23.660156 9.425781 21.671875 10.21875 C 19.691406 11.019531 17.125 11.421875 13.96875 11.421875 Z M 14.03125 -13.875 C 15.332031 -13.875 16.347656 -14.253906 17.078125 -15.015625 C 17.816406 -15.773438 18.1875 -16.863281 18.1875 -18.28125 C 18.1875 -19.695312 17.816406 -20.785156 17.078125 -21.546875 C 16.347656 -22.304688 15.332031 -22.6875 14.03125 -22.6875 C 12.71875 -22.6875 11.703125 -22.304688 10.984375 -21.546875 C 10.265625 -20.785156 9.90625 -19.695312 9.90625 -18.28125 C 9.90625 -16.851562 10.265625 -15.757812 10.984375 -15 C 11.703125 -14.25 12.71875 -13.875 14.03125 -13.875 Z M 13.96875 6.515625 C 16.28125 6.515625 17.957031 6.1875 19 5.53125 C 20.050781 4.882812 20.578125 4.039062 20.578125 3 C 20.578125 2.15625 20.304688 1.53125 19.765625 1.125 C 19.234375 0.726562 18.382812 0.515625 17.21875 0.484375 L 11.890625 0.25 C 11.710938 0.25 11.546875 0.238281 11.390625 0.21875 C 11.234375 0.207031 11.082031 0.203125 10.9375 0.203125 C 9.800781 0.203125 8.9375 0.441406 8.34375 0.921875 C 7.75 1.410156 7.453125 2.085938 7.453125 2.953125 C 7.453125 4.085938 7.992188 4.960938 9.078125 5.578125 C 10.171875 6.203125 11.800781 6.515625 13.96875 6.515625 Z M 13.96875 6.515625 "/></g></g></g><g fill="#000000" fill-opacity="1"><g transform="translate(653.885931, 575.249463)"><g><path d="M 26.609375 -11.9375 L 9.296875 -11.9375 C 9.492188 -9.59375 10.160156 -7.882812 11.296875 -6.8125 C 12.441406 -5.75 14 -5.21875 15.96875 -5.21875 C 17.507812 -5.21875 18.757812 -5.503906 19.71875 -6.078125 C 20.6875 -6.660156 21.460938 -7.539062 22.046875 -8.71875 L 22.5625 -8.71875 L 27.046875 -5.828125 C 26.171875 -3.941406 24.84375 -2.410156 23.0625 -1.234375 C 21.289062 -0.0664062 18.925781 0.515625 15.96875 0.515625 C 13.1875 0.515625 10.78125 -0.0078125 8.75 -1.0625 C 6.726562 -2.125 5.164062 -3.703125 4.0625 -5.796875 C 2.96875 -7.890625 2.421875 -10.441406 2.421875 -13.453125 C 2.421875 -16.515625 3 -19.09375 4.15625 -21.1875 C 5.3125 -23.289062 6.875 -24.859375 8.84375 -25.890625 C 10.8125 -26.921875 13.023438 -27.4375 15.484375 -27.4375 C 19.285156 -27.4375 22.195312 -26.425781 24.21875 -24.40625 C 26.25 -22.394531 27.265625 -19.4375 27.265625 -15.53125 C 27.265625 -14.113281 27.21875 -13.015625 27.125 -12.234375 Z M 20.796875 -16.3125 C 20.734375 -18.363281 20.257812 -19.851562 19.375 -20.78125 C 18.488281 -21.71875 17.191406 -22.1875 15.484375 -22.1875 C 12.066406 -22.1875 10.054688 -20.226562 9.453125 -16.3125 Z M 20.796875 -16.3125 "/></g></g></g><g fill="#000000" fill-opacity="1"><g transform="translate(683.153829, 575.249463)"><g><path d="M 4.640625 0 L 4.640625 -35.6875 L 18.96875 -35.6875 C 22.664062 -35.6875 25.453125 -34.835938 27.328125 -33.140625 C 29.210938 -31.441406 30.15625 -29.09375 30.15625 -26.09375 C 30.15625 -23.9375 29.601562 -22.164062 28.5 -20.78125 C 27.40625 -19.394531 25.765625 -18.335938 23.578125 -17.609375 L 23.578125 -17.09375 C 24.703125 -16.601562 25.609375 -15.878906 26.296875 -14.921875 C 26.992188 -13.960938 27.648438 -12.535156 28.265625 -10.640625 L 31.84375 0 L 24.578125 0 L 21.09375 -10.671875 C 20.738281 -11.742188 20.335938 -12.578125 19.890625 -13.171875 C 19.441406 -13.765625 18.867188 -14.195312 18.171875 -14.46875 C 17.484375 -14.738281 16.585938 -14.875 15.484375 -14.875 L 11.6875 -14.875 L 11.6875 0 Z M 18.109375 -20.453125 C 21.535156 -20.453125 23.25 -22.050781 23.25 -25.25 C 23.25 -28.488281 21.535156 -30.109375 18.109375 -30.109375 L 11.6875 -30.109375 L 11.6875 -20.453125 Z M 18.109375 -20.453125 "/></g></g></g><g fill="#000000" fill-opacity="1"><g transform="translate(716.522647, 575.249463)"><g><path d="M 10.5 0.515625 C 8.769531 0.515625 7.269531 0.195312 6 -0.4375 C 4.738281 -1.070312 3.765625 -2.003906 3.078125 -3.234375 C 2.390625 -4.460938 2.046875 -5.941406 2.046875 -7.671875 C 2.046875 -9.265625 2.390625 -10.601562 3.078125 -11.6875 C 3.765625 -12.769531 4.820312 -13.65625 6.25 -14.34375 C 7.6875 -15.03125 9.554688 -15.5625 11.859375 -15.9375 C 13.472656 -16.195312 14.695312 -16.484375 15.53125 -16.796875 C 16.375 -17.109375 16.941406 -17.457031 17.234375 -17.84375 C 17.523438 -18.238281 17.671875 -18.738281 17.671875 -19.34375 C 17.671875 -20.195312 17.367188 -20.851562 16.765625 -21.3125 C 16.171875 -21.769531 15.171875 -22 13.765625 -22 C 12.273438 -22 10.851562 -21.664062 9.5 -21 C 8.144531 -20.332031 6.972656 -19.453125 5.984375 -18.359375 L 5.5 -18.359375 L 2.65625 -22.625 C 4.03125 -24.144531 5.703125 -25.328125 7.671875 -26.171875 C 9.640625 -27.015625 11.785156 -27.4375 14.109375 -27.4375 C 17.671875 -27.4375 20.25 -26.679688 21.84375 -25.171875 C 23.445312 -23.660156 24.25 -21.507812 24.25 -18.71875 L 24.25 -7.03125 C 24.25 -5.820312 24.773438 -5.21875 25.828125 -5.21875 C 26.234375 -5.21875 26.632812 -5.289062 27.03125 -5.4375 L 27.375 -5.34375 L 27.859375 -0.640625 C 27.484375 -0.390625 26.960938 -0.1875 26.296875 -0.03125 C 25.628906 0.125 24.894531 0.203125 24.09375 0.203125 C 22.488281 0.203125 21.234375 -0.101562 20.328125 -0.71875 C 19.421875 -1.34375 18.773438 -2.316406 18.390625 -3.640625 L 17.875 -3.6875 C 16.550781 -0.882812 14.09375 0.515625 10.5 0.515625 Z M 12.640625 -4.546875 C 14.203125 -4.546875 15.453125 -5.066406 16.390625 -6.109375 C 17.328125 -7.160156 17.796875 -8.625 17.796875 -10.5 L 17.796875 -13.234375 L 17.328125 -13.328125 C 16.921875 -13.003906 16.390625 -12.734375 15.734375 -12.515625 C 15.078125 -12.296875 14.128906 -12.078125 12.890625 -11.859375 C 11.421875 -11.617188 10.363281 -11.203125 9.71875 -10.609375 C 9.082031 -10.015625 8.765625 -9.171875 8.765625 -8.078125 C 8.765625 -6.921875 9.101562 -6.039062 9.78125 -5.4375 C 10.46875 -4.84375 11.421875 -4.546875 12.640625 -4.546875 Z M 12.640625 -4.546875 "/></g></g></g><g fill="#000000" fill-opacity="1"><g transform="translate(744.911775, 575.249463)"><g><path d="M 3.875 0 L 3.875 -26.921875 L 10.375 -26.921875 L 10.375 -22.96875 L 10.890625 -22.859375 C 12.566406 -25.910156 15.285156 -27.4375 19.046875 -27.4375 C 22.148438 -27.4375 24.429688 -26.585938 25.890625 -24.890625 C 27.347656 -23.203125 28.078125 -20.738281 28.078125 -17.5 L 28.078125 0 L 21.3125 0 L 21.3125 -16.671875 C 21.3125 -18.460938 20.953125 -19.753906 20.234375 -20.546875 C 19.523438 -21.335938 18.378906 -21.734375 16.796875 -21.734375 C 14.859375 -21.734375 13.347656 -21.101562 12.265625 -19.84375 C 11.179688 -18.59375 10.640625 -16.625 10.640625 -13.9375 L 10.640625 0 Z M 3.875 0 "/></g></g></g><g fill="#000000" fill-opacity="1"><g transform="translate(776.449814, 575.249463)"><g><path d="M 3.875 0 L 3.875 -37.75 L 10.640625 -37.75 L 10.640625 -16.796875 L 11.296875 -16.796875 L 19.09375 -26.921875 L 25.953125 -26.921875 L 25.953125 -26.375 L 16.796875 -14.546875 L 26.984375 -0.609375 L 26.984375 0 L 19.84375 0 L 11.296875 -11.359375 L 10.640625 -11.359375 L 10.640625 0 Z M 3.875 0 "/></g></g></g><g fill="#000000" fill-opacity="1"><g transform="translate(803.471968, 575.249463)"><g/></g></g><g fill="#000000" fill-opacity="1"><g transform="translate(815.262129, 575.249463)"><g><path d="M 34.25 0 L 26.828125 0 L 24.140625 -8.234375 L 10.46875 -8.234375 L 7.78125 0 L 0.53125 0 L 12.859375 -35.6875 L 21.921875 -35.6875 Z M 16.96875 -28.25 L 12.375 -14.15625 L 22.1875 -14.15625 L 17.578125 -28.25 Z M 16.96875 -28.25 "/></g></g></g><g fill="#000000" fill-opacity="1"><g transform="translate(850.046719, 575.249463)"><g><path d="M 11.1875 0.515625 C 8.757812 0.515625 6.90625 -0.140625 5.625 -1.453125 C 4.351562 -2.765625 3.71875 -4.753906 3.71875 -7.421875 L 3.71875 -37.75 L 10.46875 -37.75 L 10.46875 -7.6875 C 10.46875 -6.039062 11.15625 -5.21875 12.53125 -5.21875 C 12.914062 -5.21875 13.328125 -5.285156 13.765625 -5.421875 L 14.109375 -5.328125 L 14.71875 -0.125 C 14.34375 0.0703125 13.847656 0.226562 13.234375 0.34375 C 12.617188 0.457031 11.9375 0.515625 11.1875 0.515625 Z M 11.1875 0.515625 "/></g></g></g><g fill="#000000" fill-opacity="1"><g transform="translate(865.522793, 575.249463)"><g><path d="M 13.96875 11.421875 C 9.519531 11.421875 6.238281 10.769531 4.125 9.46875 C 2.007812 8.164062 0.953125 6.351562 0.953125 4.03125 C 0.953125 2.613281 1.398438 1.453125 2.296875 0.546875 C 3.203125 -0.359375 4.503906 -0.960938 6.203125 -1.265625 L 6.203125 -1.78125 C 5.285156 -2.332031 4.628906 -2.945312 4.234375 -3.625 C 3.835938 -4.300781 3.640625 -5.085938 3.640625 -5.984375 C 3.640625 -8.148438 5.046875 -9.609375 7.859375 -10.359375 L 7.859375 -10.859375 C 6.410156 -11.691406 5.316406 -12.722656 4.578125 -13.953125 C 3.847656 -15.179688 3.484375 -16.664062 3.484375 -18.40625 C 3.484375 -20.195312 3.894531 -21.769531 4.71875 -23.125 C 5.539062 -24.488281 6.742188 -25.546875 8.328125 -26.296875 C 9.921875 -27.054688 11.820312 -27.4375 14.03125 -27.4375 C 16.28125 -27.4375 18.070312 -27.046875 19.40625 -26.265625 C 20.238281 -27.472656 20.71875 -28.863281 20.84375 -30.4375 L 21.359375 -30.765625 L 26.21875 -29.5625 C 26.070312 -28.28125 25.695312 -27.203125 25.09375 -26.328125 C 24.488281 -25.460938 23.554688 -24.6875 22.296875 -24 L 22.296875 -23.46875 C 23.804688 -22.125 24.5625 -20.257812 24.5625 -17.875 C 24.5625 -16.207031 24.144531 -14.710938 23.3125 -13.390625 C 22.488281 -12.078125 21.28125 -11.035156 19.6875 -10.265625 C 18.101562 -9.503906 16.21875 -9.125 14.03125 -9.125 L 13.015625 -9.15625 C 12.359375 -9.1875 11.898438 -9.203125 11.640625 -9.203125 C 11.023438 -9.203125 10.539062 -9.035156 10.1875 -8.703125 C 9.84375 -8.367188 9.671875 -7.941406 9.671875 -7.421875 C 9.671875 -6.847656 9.894531 -6.398438 10.34375 -6.078125 C 10.800781 -5.765625 11.472656 -5.59375 12.359375 -5.5625 L 18.390625 -5.34375 C 24.335938 -5.164062 27.3125 -2.601562 27.3125 2.34375 C 27.3125 4.082031 26.867188 5.628906 25.984375 6.984375 C 25.097656 8.347656 23.660156 9.425781 21.671875 10.21875 C 19.691406 11.019531 17.125 11.421875 13.96875 11.421875 Z M 14.03125 -13.875 C 15.332031 -13.875 16.347656 -14.253906 17.078125 -15.015625 C 17.816406 -15.773438 18.1875 -16.863281 18.1875 -18.28125 C 18.1875 -19.695312 17.816406 -20.785156 17.078125 -21.546875 C 16.347656 -22.304688 15.332031 -22.6875 14.03125 -22.6875 C 12.71875 -22.6875 11.703125 -22.304688 10.984375 -21.546875 C 10.265625 -20.785156 9.90625 -19.695312 9.90625 -18.28125 C 9.90625 -16.851562 10.265625 -15.757812 10.984375 -15 C 11.703125 -14.25 12.71875 -13.875 14.03125 -13.875 Z M 13.96875 6.515625 C 16.28125 6.515625 17.957031 6.1875 19 5.53125 C 20.050781 4.882812 20.578125 4.039062 20.578125 3 C 20.578125 2.15625 20.304688 1.53125 19.765625 1.125 C 19.234375 0.726562 18.382812 0.515625 17.21875 0.484375 L 11.890625 0.25 C 11.710938 0.25 11.546875 0.238281 11.390625 0.21875 C 11.234375 0.207031 11.082031 0.203125 10.9375 0.203125 C 9.800781 0.203125 8.9375 0.441406 8.34375 0.921875 C 7.75 1.410156 7.453125 2.085938 7.453125 2.953125 C 7.453125 4.085938 7.992188 4.960938 9.078125 5.578125 C 10.171875 6.203125 11.800781 6.515625 13.96875 6.515625 Z M 13.96875 6.515625 "/></g></g></g><g fill="#000000" fill-opacity="1"><g transform="translate(893.521357, 575.249463)"><g><path d="M 15.65625 0.515625 C 13.007812 0.515625 10.691406 -0.0234375 8.703125 -1.109375 C 6.710938 -2.191406 5.164062 -3.78125 4.0625 -5.875 C 2.96875 -7.96875 2.421875 -10.492188 2.421875 -13.453125 C 2.421875 -16.410156 2.96875 -18.9375 4.0625 -21.03125 C 5.164062 -23.132812 6.710938 -24.726562 8.703125 -25.8125 C 10.691406 -26.894531 13.007812 -27.4375 15.65625 -27.4375 C 18.289062 -27.4375 20.601562 -26.894531 22.59375 -25.8125 C 24.59375 -24.726562 26.144531 -23.132812 27.25 -21.03125 C 28.351562 -18.9375 28.90625 -16.410156 28.90625 -13.453125 C 28.90625 -10.492188 28.351562 -7.96875 27.25 -5.875 C 26.144531 -3.78125 24.59375 -2.191406 22.59375 -1.109375 C 20.601562 -0.0234375 18.289062 0.515625 15.65625 0.515625 Z M 15.65625 -5.21875 C 19.832031 -5.21875 21.921875 -7.960938 21.921875 -13.453125 C 21.921875 -16.296875 21.382812 -18.378906 20.3125 -19.703125 C 19.238281 -21.035156 17.6875 -21.703125 15.65625 -21.703125 C 11.46875 -21.703125 9.375 -18.953125 9.375 -13.453125 C 9.375 -7.960938 11.46875 -5.21875 15.65625 -5.21875 Z M 15.65625 -5.21875 "/></g></g></g><g fill="#000000" fill-opacity="1"><g transform="translate(924.81527, 575.249463)"><g><path d="M 3.875 0 L 3.875 -26.921875 L 10.453125 -26.921875 L 10.453125 -22.921875 L 10.96875 -22.828125 C 11.613281 -24.328125 12.460938 -25.425781 13.515625 -26.125 C 14.578125 -26.820312 15.867188 -27.171875 17.390625 -27.171875 C 18.910156 -27.171875 20.070312 -26.910156 20.875 -26.390625 L 19.734375 -20.5625 L 19.21875 -20.453125 C 18.78125 -20.640625 18.351562 -20.769531 17.9375 -20.84375 C 17.53125 -20.925781 17.035156 -20.96875 16.453125 -20.96875 C 14.566406 -20.96875 13.125 -20.304688 12.125 -18.984375 C 11.132812 -17.660156 10.640625 -15.53125 10.640625 -12.59375 L 10.640625 0 Z M 3.875 0 "/></g></g></g><g fill="#000000" fill-opacity="1"><g transform="translate(945.930122, 575.249463)"><g><path d="M 7.25 -30.15625 C 6.03125 -30.15625 5.035156 -30.523438 4.265625 -31.265625 C 3.503906 -32.003906 3.125 -32.957031 3.125 -34.125 C 3.125 -35.28125 3.503906 -36.226562 4.265625 -36.96875 C 5.035156 -37.71875 6.03125 -38.09375 7.25 -38.09375 C 8.0625 -38.09375 8.785156 -37.921875 9.421875 -37.578125 C 10.054688 -37.234375 10.546875 -36.765625 10.890625 -36.171875 C 11.242188 -35.578125 11.421875 -34.894531 11.421875 -34.125 C 11.421875 -33.363281 11.242188 -32.679688 10.890625 -32.078125 C 10.546875 -31.472656 10.054688 -31 9.421875 -30.65625 C 8.785156 -30.320312 8.0625 -30.15625 7.25 -30.15625 Z M 3.875 0 L 3.875 -26.921875 L 10.640625 -26.921875 L 10.640625 0 Z M 3.875 0 "/></g></g></g><g fill="#000000" fill-opacity="1"><g transform="translate(960.429832, 575.249463)"><g><path d="M 18.578125 -6.421875 L 20.34375 -1.421875 C 19.601562 -0.816406 18.679688 -0.34375 17.578125 0 C 16.472656 0.34375 15.21875 0.515625 13.8125 0.515625 C 10.90625 0.515625 8.691406 -0.273438 7.171875 -1.859375 C 5.660156 -3.453125 4.90625 -5.765625 4.90625 -8.796875 L 4.90625 -21.578125 L 0.8125 -21.578125 L 0.8125 -26.953125 L 4.90625 -26.953125 L 4.90625 -32.203125 L 11.671875 -33.296875 L 11.671875 -26.953125 L 19.3125 -26.953125 L 19.3125 -21.578125 L 11.671875 -21.578125 L 11.671875 -9.28125 C 11.671875 -7.945312 11.945312 -6.972656 12.5 -6.359375 C 13.050781 -5.742188 13.859375 -5.4375 14.921875 -5.4375 C 16.117188 -5.4375 17.164062 -5.765625 18.0625 -6.421875 Z M 18.578125 -6.421875 "/></g></g></g><g fill="#000000" fill-opacity="1"><g transform="translate(981.349401, 575.249463)"><g><path d="M 3.875 0 L 3.875 -37.75 L 10.640625 -37.75 L 10.640625 -23.40625 L 11.15625 -23.3125 C 12.050781 -24.632812 13.148438 -25.648438 14.453125 -26.359375 C 15.753906 -27.078125 17.328125 -27.4375 19.171875 -27.4375 C 25.109375 -27.4375 28.078125 -24.066406 28.078125 -17.328125 L 28.078125 0 L 21.3125 0 L 21.3125 -16.484375 C 21.3125 -18.316406 20.941406 -19.648438 20.203125 -20.484375 C 19.472656 -21.316406 18.335938 -21.734375 16.796875 -21.734375 C 14.910156 -21.734375 13.410156 -21.097656 12.296875 -19.828125 C 11.191406 -18.566406 10.640625 -16.601562 10.640625 -13.9375 L 10.640625 0 Z M 3.875 0 "/></g></g></g><g fill="#000000" fill-opacity="1"><g transform="translate(1012.88744, 575.249463)"><g><path d="M 3.875 0 L 3.875 -26.921875 L 10.375 -26.921875 L 10.375 -23.3125 L 10.890625 -23.21875 C 11.765625 -24.664062 12.789062 -25.726562 13.96875 -26.40625 C 15.15625 -27.09375 16.664062 -27.4375 18.5 -27.4375 C 20.539062 -27.4375 22.175781 -27.035156 23.40625 -26.234375 C 24.644531 -25.429688 25.550781 -24.253906 26.125 -22.703125 L 26.640625 -22.703125 C 27.460938 -24.316406 28.53125 -25.507812 29.84375 -26.28125 C 31.15625 -27.050781 32.785156 -27.4375 34.734375 -27.4375 C 40.316406 -27.4375 43.109375 -24.328125 43.109375 -18.109375 L 43.109375 0 L 36.359375 0 L 36.359375 -17.265625 C 36.359375 -18.835938 36.046875 -19.972656 35.421875 -20.671875 C 34.804688 -21.378906 33.816406 -21.734375 32.453125 -21.734375 C 28.734375 -21.734375 26.875 -19.25 26.875 -14.28125 L 26.875 0 L 20.125 0 L 20.125 -17.265625 C 20.125 -18.835938 19.804688 -19.972656 19.171875 -20.671875 C 18.546875 -21.378906 17.550781 -21.734375 16.1875 -21.734375 C 14.445312 -21.734375 13.085938 -21.148438 12.109375 -19.984375 C 11.128906 -18.816406 10.640625 -16.960938 10.640625 -14.421875 L 10.640625 0 Z M 3.875 0 "/></g></g></g></svg>